<?xml version="1.0" encoding="utf-8"?>
<!-- Generator: Adobe Illustrator 19.2.1, SVG Export Plug-In . SVG Version: 6.00 Build 0)  -->
<svg version="1.1" id="Layer_1" xmlns="http://www.w3.org/2000/svg" xmlns:xlink="http://www.w3.org/1999/xlink" x="0px" y="0px"
	 viewBox="0 0 53.2 60" style="enable-background:new 0 0 53.2 60;" xml:space="preserve">
<style type="text/css">
	.st0{fill:#FFFFFF;}
</style>
<g>
	<path class="st0" d="M13.4,29.7c6.9,0,12.6-6.6,12.6-14.6S20.3,0.5,13.4,0.5S0.8,7,0.8,15.1S6.4,29.7,13.4,29.7z M9.7,8.1l3.6,3.2
		L16.7,8l3.7,3.3l-3.3,3.8l3.5,3.4L17.1,22l-3.6-3.1L10,22.2L6.4,19l3.2-3.8l-3.4-3.6L9.7,8.1z"/>
	<path class="st0" d="M36.6,29.6c6.8,1.6,13.7-3.6,15.5-11.4c1.8-7.9-2.2-15.5-9-17.1c-6.8-1.6-13.7,3.6-15.5,11.4
		C25.8,20.4,29.8,28.1,36.6,29.6z M36.1,13.4l-1.7-4.8l4.8-1.8l2,4.6l4.7-1.6l1.9,4.7l-4.6,1.9l1.7,4.8L40,22.9l-1.8-4.6L33.2,20
		l-1.8-4.8L36.1,13.4z"/>
	<path class="st0" d="M8,31c-6.7,2.5-9.8,10.7-7,18.3s10.5,11.8,17.2,9.3c6.7-2.5,9.8-10.7,7-18.3S14.7,28.5,8,31z M18.3,51
		l-4.1-2.6l-2.9,4l-4.4-2.8l2.8-4.2l-4.1-3l2.8-4.1l4.2,2.5l2.9-3.9l4.2,2.8l-2.7,4.2l4,2.8L18.3,51z"/>
	<path class="st0" d="M40.4,30.1c-7.1-0.4-13.2,5.9-13.6,14s5,15,12.1,15.4c7.1,0.4,13.2-5.9,13.6-14C52.9,37.4,47.5,30.5,40.4,30.1
		z M48.6,43.5c0.1,0.4,0.2,0.7,0,1.1c0,0.1-0.1,0.2-0.1,0.3c0,0.6-0.1,1.2-0.1,1.7c-0.1,0.7-0.3,1.3-0.7,1.8c-0.4,0.4-0.5,1-0.5,1.5
		c0,0.3-0.1,0.6-0.2,0.9c0,0.1-0.2,0.2-0.3,0.3c-0.7,0.6-1.3,1.3-2,1.9c-0.3,0.3-0.7,0.5-1,0.8c-0.5,0.3-1.1,0.5-1.6,0.8
		c-0.1,0.1-0.3,0.1-0.4,0.1c-0.3,0-0.6,0-0.9,0c-0.4,0-0.7,0.1-1.1,0.2c-0.7,0.3-1.4,0.5-2.2,0.6c-0.4,0-0.8,0-1.2-0.2
		c-0.3-0.2-0.7-0.2-1-0.2c-0.4,0-0.8-0.1-1.2-0.2c-0.3-0.1-0.6-0.1-0.8-0.2c-0.2-0.1-0.3-0.1-0.5-0.3c-0.1-0.1-0.2-0.3-0.3-0.4
		c-0.2-0.2-0.1-0.3,0.1-0.4c0.4-0.2,0.7-0.4,1.1-0.6c0.4-0.2,0.9-0.3,1.3-0.4c0.5-0.1,0.9-0.3,1.2-0.7c0.3-0.4,0.8-0.5,1.3-0.6
		c1-0.1,1.9-0.6,2.8-0.9c0.2-0.1,0.4-0.2,0.6-0.4c0.6-0.6,1.3-1.2,1.9-1.8c0.3-0.3,0.5-0.7,0.7-1c0.2-0.2,0.3-0.5,0.5-0.7
		c0.1-0.1,0.1-0.2,0.1-0.3c0-0.4,0.1-0.7,0-1.1c-0.2-0.7-0.1-1.4-0.1-2.2c0-0.6-0.1-1.1-0.5-1.5c-0.3-0.4-0.5-0.9-0.8-1.3
		c-0.1-0.3-0.3-0.4-0.6-0.5c-1-0.3-2-0.3-2.9-0.2c-0.6,0.1-1.2,0.3-1.8,0.5c-0.1,0-0.1,0.1-0.2,0.1c-0.4,0.4-0.9,0.8-1.3,1.2
		c-0.1,0.1-0.1,0.1-0.1,0.2c-0.1,0.7-0.3,1.4-0.3,2.1c0,0.5,0,1,0.4,1.5c0.2,0.2,0.3,0.4,0.5,0.6c0.1,0.2,0.3,0.2,0.5,0.1
		c0.3-0.1,0.6-0.3,0.9-0.4c-0.2-0.5-0.3-1-0.5-1.4c0.7-0.5,1.4-0.4,2.1-0.4c0.3,0,0.6,0.1,0.8,0.2c0,0,0.1,0,0.1,0.1
		c0.7,0.8,1,1.7,1,2.7c0,0.4-0.1,0.7-0.1,1.1c0,0.1,0,0.1-0.1,0.2c-0.5,0.4-0.9,0.8-1.4,1.2c-0.1,0.1-0.3,0.2-0.4,0.2
		c-0.8,0.2-1.6,0.2-2.3,0.6c0,0-0.1,0.1-0.2,0c-0.6-0.1-1.2-0.1-1.7-0.5c0,0-0.1,0-0.1-0.1c-0.3-0.7-1-1.1-1.5-1.6
		c-0.3-0.3-0.6-0.7-0.8-1.1c-0.3-0.6-0.6-1.1-1.1-1.5c-0.2-0.2-0.3-0.4-0.3-0.7c-0.2-0.9,0-1.9-0.1-2.8c0-0.2-0.1-0.5-0.2-0.7
		c-0.1-0.2,0-0.3,0.2-0.4c0.4-0.3,0.9-0.5,1.3-0.9c0.3-0.3,0.6-0.8,0.9-1.1c0.1-0.2,0.3-0.3,0.5-0.4c1-0.7,2.1-1.4,3.1-2.1
		c0.4-0.2,0.8-0.3,1.3-0.4c0.2,0,0.3,0,0.4,0.2c0.2,0.4,0.3,0.4,0.7,0.2c0.5-0.3,1-0.3,1.4,0.2c0.1,0.1,0.4,0.2,0.6,0.2
		c0.4,0,0.8,0,1.2,0c0.1,0,0.3,0.1,0.3,0.2c0.1,0.2,0.3,0.2,0.5,0.2c0.2,0,0.4,0,0.5,0.2c0.1,0.3,0.4,0.3,0.6,0.3
		c0.1,0,0.3,0,0.4-0.1c0.3-0.2,0.4,0,0.6,0.2c1,1,1.9,2.1,2.7,3.3c0.1,0.1,0.1,0.2,0.1,0.3c0.1,0.5,0.2,1,0.3,1.4
		C48.3,42.4,48.5,43,48.6,43.5z"/>
</g>
</svg>
